<svg width="15" height="15" viewBox="0 0 15 15" fill="none" xmlns="http://www.w3.org/2000/svg">
<circle cx="7.5" cy="7.5" r="7" stroke="#F2A4CC"/>
<path d="M11 7.5L11.3254 7.87963C11.4362 7.78464 11.5 7.64596 11.5 7.5C11.5 7.35404 11.4362 7.21536 11.3254 7.12037L11 7.5ZM10.9124 7.42491L11.2378 7.04528L11.2378 7.04528L10.9124 7.42491ZM4 8H11V7H4V8ZM11.3254 7.12037L11.2378 7.04528L10.587 7.80454L10.6746 7.87963L11.3254 7.12037ZM11.2378 7.04528L7.8254 4.12037L7.1746 4.87963L10.587 7.80454L11.2378 7.04528ZM10.6746 7.12037L7.1746 10.1204L7.8254 10.8796L11.3254 7.87963L10.6746 7.12037Z" fill="#F2A4CC"/>
</svg>
