<svg width="23" height="24" viewBox="0 0 23 24" fill="none" xmlns="http://www.w3.org/2000/svg">
<path d="M0 1.5H3.60745C3.83789 1.5 4.03848 1.65748 4.09317 1.88133L7.90683 17.4908C7.96152 17.7146 8.16212 17.8721 8.39255 17.8721H18.6255C18.8475 17.8721 19.0429 17.7258 19.1053 17.5128L21.8122 8.2802C21.906 7.96006 21.666 7.63953 21.3324 7.63953H5.5" stroke="white" stroke-width="2"/>
<path d="M9.51849 7.15116L13.5 3.38767L17.4815 7.15116H9.51849Z" fill="#EF50A2" stroke="white" stroke-width="2"/>
<path d="M10.5 23.5C11.6046 23.5 12.5 22.5838 12.5 21.4535C12.5 20.3232 11.6046 19.407 10.5 19.407C9.39543 19.407 8.5 20.3232 8.5 21.4535C8.5 22.5838 9.39543 23.5 10.5 23.5Z" fill="white"/>
<path d="M16.5 23.5C17.6046 23.5 18.5 22.5838 18.5 21.4535C18.5 20.3232 17.6046 19.407 16.5 19.407C15.3954 19.407 14.5 20.3232 14.5 21.4535C14.5 22.5838 15.3954 23.5 16.5 23.5Z" fill="white"/>
<path d="M21 8.5H6.5L8.5 17H18.5L21 8.5Z" fill="#EF50A2"/>
</svg>
