<svg width="101" height="31" viewBox="0 0 101 31" fill="none" xmlns="http://www.w3.org/2000/svg">
<path d="M14.5 26C20.8513 26 26 20.8513 26 14.5C26 8.14873 20.8513 3 14.5 3C8.14873 3 3 8.14873 3 14.5C3 20.8513 8.14873 26 14.5 26Z" stroke="#979797" stroke-width="6"/>
<path d="M64.5 26C70.8513 26 76 20.8513 76 14.5C76 8.14873 70.8513 3 64.5 3C58.1487 3 53 8.14873 53 14.5C53 20.8513 58.1487 26 64.5 26Z" stroke="#979797" stroke-width="6"/>
<path d="M26 1V28" stroke="#979797" stroke-width="6"/>
<path d="M44.7183 20.5528C44.7183 19.6651 44.2438 18.97 43.2949 18.4676C42.3639 17.9484 40.86 17.4877 38.7832 17.0859C31.8724 15.7292 28.417 12.9825 28.417 8.84553C28.417 6.43373 29.4823 4.4239 31.6128 2.81604C33.7612 1.19143 36.5632 0.379128 40.0186 0.379128C43.7067 0.379128 46.6519 1.19143 48.854 2.81604C51.0741 4.44066 52.1841 6.55098 52.1841 9.147H44.4229C44.4229 8.1086 44.0648 7.25442 43.3486 6.58447C42.6325 5.89778 41.5135 5.55444 39.9917 5.55444C38.6847 5.55444 37.6732 5.83079 36.957 6.38349C36.2409 6.93619 35.8828 7.63963 35.8828 8.49381C35.8828 9.29774 36.2856 9.95093 37.0913 10.4534C37.9149 10.9391 39.2935 11.3662 41.2271 11.7346C43.1606 12.0864 44.7899 12.4883 46.1147 12.9405C50.2147 14.3474 52.2646 16.7844 52.2646 20.2513C52.2646 22.7301 51.1278 24.7399 48.854 26.2808C46.5802 27.8049 43.644 28.567 40.0454 28.567C37.6105 28.567 35.4442 28.165 33.5464 27.361C31.6665 26.5404 30.1895 25.4266 29.1152 24.0198C28.041 22.5961 27.5039 21.0636 27.5039 19.4222H34.8623C34.9339 20.7119 35.4442 21.7 36.3931 22.3868C37.342 23.0734 38.6131 23.4168 40.2065 23.4168C41.6925 23.4168 42.8115 23.1572 43.5635 22.638C44.3333 22.102 44.7183 21.407 44.7183 20.5528Z" fill="#979797"/>
<path d="M92.7183 20.5528C92.7183 19.6651 92.2438 18.97 91.2949 18.4676C90.3639 17.9484 88.86 17.4877 86.7832 17.0859C79.8724 15.7292 76.417 12.9825 76.417 8.84553C76.417 6.43373 77.4823 4.4239 79.6128 2.81604C81.7612 1.19143 84.5632 0.379128 88.0186 0.379128C91.7067 0.379128 94.6519 1.19143 96.854 2.81604C99.0741 4.44066 100.184 6.55098 100.184 9.147H92.4229C92.4229 8.1086 92.0648 7.25442 91.3486 6.58447C90.6325 5.89778 89.5135 5.55444 87.9917 5.55444C86.6847 5.55444 85.6732 5.83079 84.957 6.38349C84.2409 6.93619 83.8828 7.63963 83.8828 8.49381C83.8828 9.29774 84.2856 9.95093 85.0913 10.4534C85.9149 10.9391 87.2935 11.3662 89.2271 11.7346C91.1606 12.0864 92.7899 12.4883 94.1147 12.9405C98.2147 14.3474 100.265 16.7844 100.265 20.2513C100.265 22.7301 99.1278 24.7399 96.854 26.2808C94.5802 27.8049 91.644 28.567 88.0454 28.567C85.6105 28.567 83.4442 28.165 81.5464 27.361C79.6665 26.5404 78.1895 25.4266 77.1152 24.0198C76.041 22.5961 75.5039 21.0636 75.5039 19.4222H82.8623C82.9339 20.7119 83.4442 21.7 84.3931 22.3868C85.342 23.0734 86.6131 23.4168 88.2065 23.4168C89.6925 23.4168 90.8115 23.1572 91.5635 22.638C92.3333 22.102 92.7183 21.407 92.7183 20.5528Z" fill="#979797"/>
</svg>
