<svg width="24" height="24" viewBox="0 0 24 24" fill="none" xmlns="http://www.w3.org/2000/svg">
<path d="M15.4878 16.1905C14.6293 15.7714 15.1301 14.9683 15.4878 14.619C16.2033 13.746 17.6342 12 17.6342 10.4286C17.6342 9.59048 17.6342 7.46032 17.6342 6.2381C17.6342 4.49206 16.0244 1 11.7317 1" stroke="#2D3A4B" stroke-width="2"/>
<path d="M8.51218 16.1905C9.37072 15.7714 8.86991 14.9683 8.51218 14.619C7.79673 13.746 6.36584 12 6.36584 10.4286C6.36584 9.59048 6.36584 7.46032 6.36584 6.2381C6.36584 4.49206 7.9756 1 12.2683 1" stroke="#2D3A4B" stroke-width="2"/>
<path d="M11.7317 23H22.4634C22.6423 23 23 22.8952 23 22.4762V20.9048C23 20.2762 23 19.8571 20.8537 18.8095L16.561 16.7143" stroke="#2D3A4B" stroke-width="2"/>
<path d="M12.2683 23H1.53657C1.35771 23 0.999988 22.8952 0.999988 22.4762V20.9048C0.999988 20.2762 0.999988 19.8571 3.14633 18.8095L8.51218 16.1905" stroke="#2D3A4B" stroke-width="2"/>
<path d="M15.4878 16.1905L16.561 16.7143" stroke="#2D3A4B" stroke-width="2"/>
</svg>
