<svg width="24" height="25" viewBox="0 0 24 25" fill="none" xmlns="http://www.w3.org/2000/svg">
<path d="M15.4878 16.6905C14.6293 16.2714 15.1301 15.4683 15.4878 15.119C16.2033 14.246 17.6341 12.5 17.6341 10.9286C17.6341 10.0905 17.6341 7.96032 17.6341 6.7381C17.6341 4.99206 16.0244 1.5 11.7317 1.5" stroke="white" stroke-width="2"/>
<path d="M8.51219 16.6905C9.37073 16.2714 8.86992 15.4683 8.51219 15.119C7.79675 14.246 6.36585 12.5 6.36585 10.9286C6.36585 10.0905 6.36585 7.96032 6.36585 6.7381C6.36585 4.99206 7.97561 1.5 12.2683 1.5" stroke="white" stroke-width="2"/>
<path d="M11.7317 23.5H22.4634C22.6423 23.5 23 23.3952 23 22.9762V21.4048C23 20.7762 23 20.3571 20.8537 19.3095L16.561 17.2143" stroke="white" stroke-width="2"/>
<path d="M12.2683 23.5H1.53659C1.35772 23.5 1 23.3952 1 22.9762V21.4048C1 20.7762 1 20.3571 3.14634 19.3095L8.5122 16.6905" stroke="white" stroke-width="2"/>
<path d="M15.4878 16.6905L16.561 17.2143" stroke="white" stroke-width="2"/>
</svg>
